<mxfile host="65bd71144e">
    <diagram id="p34TLsedeZsrje1gSTJx" name="components">
        <mxGraphModel dx="1037" dy="418" grid="1" gridSize="10" guides="1" tooltips="1" connect="1" arrows="1" fold="1" page="1" pageScale="1" pageWidth="827" pageHeight="1169" math="0" shadow="0">
            <root>
                <mxCell id="0"/>
                <mxCell id="1" parent="0"/>
                <mxCell id="5" style="edgeStyle=none;html=1;entryX=1;entryY=0.5;entryDx=0;entryDy=0;entryPerimeter=0;" parent="1" source="2" target="3" edge="1">
                    <mxGeometry relative="1" as="geometry"/>
                </mxCell>
                <mxCell id="2" value="C&amp;amp;C" style="points=[];aspect=fixed;html=1;align=center;shadow=0;dashed=0;image;image=img/lib/allied_telesis/computer_and_terminals/Server_Desktop.svg;" parent="1" vertex="1">
                    <mxGeometry x="172.11" y="120" width="58.38" height="74" as="geometry"/>
                </mxCell>
                <mxCell id="3" value="mysql" style="strokeWidth=2;html=1;shape=mxgraph.flowchart.database;whiteSpace=wrap;" parent="1" vertex="1">
                    <mxGeometry x="60" y="127" width="60" height="60" as="geometry"/>
                </mxCell>
                <mxCell id="6" value="" style="ellipse;shape=cloud;whiteSpace=wrap;html=1;" parent="1" vertex="1">
                    <mxGeometry x="330" y="30" width="440" height="283" as="geometry"/>
                </mxCell>
                <mxCell id="16" style="edgeStyle=none;html=1;" parent="1" source="7" edge="1">
                    <mxGeometry relative="1" as="geometry">
                        <mxPoint x="230" y="160" as="targetPoint"/>
                    </mxGeometry>
                </mxCell>
                <mxCell id="7" value="" style="aspect=fixed;html=1;points=[];align=center;image;fontSize=12;image=img/lib/azure2/general/Code.svg;" parent="1" vertex="1">
                    <mxGeometry x="470" y="90" width="49.22" height="40" as="geometry"/>
                </mxCell>
                <mxCell id="15" style="edgeStyle=none;html=1;" parent="1" source="8" target="2" edge="1">
                    <mxGeometry relative="1" as="geometry"/>
                </mxCell>
                <mxCell id="8" value="" style="aspect=fixed;html=1;points=[];align=center;image;fontSize=12;image=img/lib/azure2/general/Code.svg;" parent="1" vertex="1">
                    <mxGeometry x="539.23" y="146" width="54.15" height="44" as="geometry"/>
                </mxCell>
                <mxCell id="17" style="edgeStyle=none;html=1;entryX=1.026;entryY=0.541;entryDx=0;entryDy=0;entryPerimeter=0;" parent="1" source="9" target="2" edge="1">
                    <mxGeometry relative="1" as="geometry"/>
                </mxCell>
                <mxCell id="9" value="" style="aspect=fixed;html=1;points=[];align=center;image;fontSize=12;image=img/lib/azure2/general/Code.svg;" parent="1" vertex="1">
                    <mxGeometry x="620" y="106" width="49.23" height="40" as="geometry"/>
                </mxCell>
                <mxCell id="19" style="edgeStyle=none;html=1;" parent="1" source="10" edge="1">
                    <mxGeometry relative="1" as="geometry">
                        <mxPoint x="240" y="160" as="targetPoint"/>
                    </mxGeometry>
                </mxCell>
                <mxCell id="10" value="" style="aspect=fixed;html=1;points=[];align=center;image;fontSize=12;image=img/lib/azure2/general/Code.svg;" parent="1" vertex="1">
                    <mxGeometry x="610" y="194" width="51.69" height="42" as="geometry"/>
                </mxCell>
                <mxCell id="18" style="edgeStyle=none;html=1;" parent="1" source="14" edge="1">
                    <mxGeometry relative="1" as="geometry">
                        <mxPoint x="230" y="160" as="targetPoint"/>
                    </mxGeometry>
                </mxCell>
                <mxCell id="14" value="" style="aspect=fixed;html=1;points=[];align=center;image;fontSize=12;image=img/lib/azure2/general/Code.svg;" parent="1" vertex="1">
                    <mxGeometry x="490" y="210" width="49.23" height="40" as="geometry"/>
                </mxCell>
            </root>
        </mxGraphModel>
    </diagram>
    <diagram id="wrjks4iKO1j95rfEVQ1q" name="models">
        <mxGraphModel dx="270" dy="418" grid="1" gridSize="10" guides="1" tooltips="1" connect="1" arrows="1" fold="1" page="1" pageScale="1" pageWidth="827" pageHeight="1169" math="0" shadow="0">
            <root>
                <mxCell id="raeqz4f3ff49IbHyFML1-0"/>
                <mxCell id="raeqz4f3ff49IbHyFML1-1" parent="raeqz4f3ff49IbHyFML1-0"/>
                <mxCell id="raeqz4f3ff49IbHyFML1-2" value="&lt;b&gt;&lt;br&gt;Attack&lt;/b&gt;" style="swimlane;fontStyle=0;align=center;verticalAlign=top;childLayout=stackLayout;horizontal=1;startSize=55;horizontalStack=0;resizeParent=1;resizeParentMax=0;resizeLast=0;collapsible=0;marginBottom=0;html=1;" parent="raeqz4f3ff49IbHyFML1-1" vertex="1">
                    <mxGeometry x="300" y="50" width="140" height="243" as="geometry"/>
                </mxCell>
                <mxCell id="raeqz4f3ff49IbHyFML1-3" value="attributes" style="text;html=1;strokeColor=none;fillColor=none;align=center;verticalAlign=middle;spacingLeft=4;spacingRight=4;overflow=hidden;rotatable=0;points=[[0,0.5],[1,0.5]];portConstraint=eastwest;" parent="raeqz4f3ff49IbHyFML1-2" vertex="1">
                    <mxGeometry y="55" width="140" height="20" as="geometry"/>
                </mxCell>
                <mxCell id="raeqz4f3ff49IbHyFML1-4" value="id&amp;nbsp;&lt;u&gt;string&lt;/u&gt;" style="text;html=1;strokeColor=none;fillColor=none;align=left;verticalAlign=middle;spacingLeft=4;spacingRight=4;overflow=hidden;rotatable=0;points=[[0,0.5],[1,0.5]];portConstraint=eastwest;" parent="raeqz4f3ff49IbHyFML1-2" vertex="1">
                    <mxGeometry y="75" width="140" height="20" as="geometry"/>
                </mxCell>
                <mxCell id="JmSSwgq6o9m8AhgU-YKd-1" value="name &lt;u&gt;string&lt;/u&gt;" style="text;html=1;strokeColor=none;fillColor=none;align=left;verticalAlign=middle;spacingLeft=4;spacingRight=4;overflow=hidden;rotatable=0;points=[[0,0.5],[1,0.5]];portConstraint=eastwest;" parent="raeqz4f3ff49IbHyFML1-2" vertex="1">
                    <mxGeometry y="95" width="140" height="20" as="geometry"/>
                </mxCell>
                <mxCell id="raeqz4f3ff49IbHyFML1-11" value="attackStatus&amp;nbsp;&lt;u&gt;enum&lt;/u&gt;" style="text;html=1;strokeColor=none;fillColor=none;align=left;verticalAlign=middle;spacingLeft=4;spacingRight=4;overflow=hidden;rotatable=0;points=[[0,0.5],[1,0.5]];portConstraint=eastwest;" parent="raeqz4f3ff49IbHyFML1-2" vertex="1">
                    <mxGeometry y="115" width="140" height="20" as="geometry"/>
                </mxCell>
                <mxCell id="raeqz4f3ff49IbHyFML1-12" value="startTime &lt;u&gt;timestamp&lt;/u&gt;" style="text;html=1;strokeColor=none;fillColor=none;align=left;verticalAlign=middle;spacingLeft=4;spacingRight=4;overflow=hidden;rotatable=0;points=[[0,0.5],[1,0.5]];portConstraint=eastwest;" parent="raeqz4f3ff49IbHyFML1-2" vertex="1">
                    <mxGeometry y="135" width="140" height="20" as="geometry"/>
                </mxCell>
                <mxCell id="raeqz4f3ff49IbHyFML1-13" value="command &lt;u&gt;string&lt;/u&gt;" style="text;html=1;strokeColor=none;fillColor=none;align=left;verticalAlign=middle;spacingLeft=4;spacingRight=4;overflow=hidden;rotatable=0;points=[[0,0.5],[1,0.5]];portConstraint=eastwest;" parent="raeqz4f3ff49IbHyFML1-2" vertex="1">
                    <mxGeometry y="155" width="140" height="20" as="geometry"/>
                </mxCell>
                <mxCell id="raeqz4f3ff49IbHyFML1-7" value="" style="line;strokeWidth=1;fillColor=none;align=left;verticalAlign=middle;spacingTop=-1;spacingLeft=3;spacingRight=3;rotatable=0;labelPosition=right;points=[];portConstraint=eastwest;" parent="raeqz4f3ff49IbHyFML1-2" vertex="1">
                    <mxGeometry y="175" width="140" height="8" as="geometry"/>
                </mxCell>
                <mxCell id="raeqz4f3ff49IbHyFML1-8" value="operations" style="text;html=1;strokeColor=none;fillColor=none;align=center;verticalAlign=middle;spacingLeft=4;spacingRight=4;overflow=hidden;rotatable=0;points=[[0,0.5],[1,0.5]];portConstraint=eastwest;" parent="raeqz4f3ff49IbHyFML1-2" vertex="1">
                    <mxGeometry y="183" width="140" height="20" as="geometry"/>
                </mxCell>
                <mxCell id="raeqz4f3ff49IbHyFML1-9" value="init" style="text;html=1;strokeColor=none;fillColor=none;align=left;verticalAlign=middle;spacingLeft=4;spacingRight=4;overflow=hidden;rotatable=0;points=[[0,0.5],[1,0.5]];portConstraint=eastwest;" parent="raeqz4f3ff49IbHyFML1-2" vertex="1">
                    <mxGeometry y="203" width="140" height="20" as="geometry"/>
                </mxCell>
                <mxCell id="JmSSwgq6o9m8AhgU-YKd-0" value="stop" style="text;html=1;strokeColor=none;fillColor=none;align=left;verticalAlign=middle;spacingLeft=4;spacingRight=4;overflow=hidden;rotatable=0;points=[[0,0.5],[1,0.5]];portConstraint=eastwest;" parent="raeqz4f3ff49IbHyFML1-2" vertex="1">
                    <mxGeometry y="223" width="140" height="20" as="geometry"/>
                </mxCell>
                <mxCell id="raeqz4f3ff49IbHyFML1-14" value="&lt;b&gt;&lt;br&gt;Client&lt;/b&gt;" style="swimlane;fontStyle=0;align=center;verticalAlign=top;childLayout=stackLayout;horizontal=1;startSize=55;horizontalStack=0;resizeParent=1;resizeParentMax=0;resizeLast=0;collapsible=0;marginBottom=0;html=1;" parent="raeqz4f3ff49IbHyFML1-1" vertex="1">
                    <mxGeometry x="460" y="50" width="140" height="183" as="geometry"/>
                </mxCell>
                <mxCell id="raeqz4f3ff49IbHyFML1-15" value="attributes" style="text;html=1;strokeColor=none;fillColor=none;align=center;verticalAlign=middle;spacingLeft=4;spacingRight=4;overflow=hidden;rotatable=0;points=[[0,0.5],[1,0.5]];portConstraint=eastwest;" parent="raeqz4f3ff49IbHyFML1-14" vertex="1">
                    <mxGeometry y="55" width="140" height="20" as="geometry"/>
                </mxCell>
                <mxCell id="raeqz4f3ff49IbHyFML1-16" value="id&amp;nbsp;&lt;u&gt;string&lt;/u&gt;" style="text;html=1;strokeColor=none;fillColor=none;align=left;verticalAlign=middle;spacingLeft=4;spacingRight=4;overflow=hidden;rotatable=0;points=[[0,0.5],[1,0.5]];portConstraint=eastwest;" parent="raeqz4f3ff49IbHyFML1-14" vertex="1">
                    <mxGeometry y="75" width="140" height="20" as="geometry"/>
                </mxCell>
                <mxCell id="NnUHqiXCnqAOlCTsOFyo-0" value="address&amp;nbsp;&lt;u&gt;string&lt;/u&gt;" style="text;html=1;strokeColor=none;fillColor=none;align=left;verticalAlign=middle;spacingLeft=4;spacingRight=4;overflow=hidden;rotatable=0;points=[[0,0.5],[1,0.5]];portConstraint=eastwest;" parent="raeqz4f3ff49IbHyFML1-14" vertex="1">
                    <mxGeometry y="95" width="140" height="20" as="geometry"/>
                </mxCell>
                <mxCell id="raeqz4f3ff49IbHyFML1-17" value="clientStatus&amp;nbsp;&lt;u&gt;enum&lt;/u&gt;" style="text;html=1;strokeColor=none;fillColor=none;align=left;verticalAlign=middle;spacingLeft=4;spacingRight=4;overflow=hidden;rotatable=0;points=[[0,0.5],[1,0.5]];portConstraint=eastwest;" parent="raeqz4f3ff49IbHyFML1-14" vertex="1">
                    <mxGeometry y="115" width="140" height="20" as="geometry"/>
                </mxCell>
                <mxCell id="raeqz4f3ff49IbHyFML1-20" value="" style="line;strokeWidth=1;fillColor=none;align=left;verticalAlign=middle;spacingTop=-1;spacingLeft=3;spacingRight=3;rotatable=0;labelPosition=right;points=[];portConstraint=eastwest;" parent="raeqz4f3ff49IbHyFML1-14" vertex="1">
                    <mxGeometry y="135" width="140" height="8" as="geometry"/>
                </mxCell>
                <mxCell id="raeqz4f3ff49IbHyFML1-21" value="operations" style="text;html=1;strokeColor=none;fillColor=none;align=center;verticalAlign=middle;spacingLeft=4;spacingRight=4;overflow=hidden;rotatable=0;points=[[0,0.5],[1,0.5]];portConstraint=eastwest;" parent="raeqz4f3ff49IbHyFML1-14" vertex="1">
                    <mxGeometry y="143" width="140" height="20" as="geometry"/>
                </mxCell>
                <mxCell id="raeqz4f3ff49IbHyFML1-22" value="sendCommand" style="text;html=1;strokeColor=none;fillColor=none;align=left;verticalAlign=middle;spacingLeft=4;spacingRight=4;overflow=hidden;rotatable=0;points=[[0,0.5],[1,0.5]];portConstraint=eastwest;" parent="raeqz4f3ff49IbHyFML1-14" vertex="1">
                    <mxGeometry y="163" width="140" height="20" as="geometry"/>
                </mxCell>
                <mxCell id="raeqz4f3ff49IbHyFML1-23" value="attackStatus" style="shape=table;startSize=30;container=1;collapsible=0;childLayout=tableLayout;fixedRows=1;rowLines=0;fontStyle=1;align=center;pointerEvents=1;" parent="raeqz4f3ff49IbHyFML1-1" vertex="1">
                    <mxGeometry x="90" y="50" width="180" height="150" as="geometry"/>
                </mxCell>
                <mxCell id="raeqz4f3ff49IbHyFML1-24" value="" style="shape=partialRectangle;html=1;whiteSpace=wrap;collapsible=0;dropTarget=0;pointerEvents=1;fillColor=none;top=0;left=0;bottom=1;right=0;points=[[0,0.5],[1,0.5]];portConstraint=eastwest;" parent="raeqz4f3ff49IbHyFML1-23" vertex="1">
                    <mxGeometry y="30" width="180" height="30" as="geometry"/>
                </mxCell>
                <mxCell id="raeqz4f3ff49IbHyFML1-25" value="1" style="shape=partialRectangle;html=1;whiteSpace=wrap;connectable=0;fillColor=none;top=0;left=0;bottom=0;right=0;overflow=hidden;pointerEvents=1;" parent="raeqz4f3ff49IbHyFML1-24" vertex="1">
                    <mxGeometry width="40" height="30" as="geometry">
                        <mxRectangle width="40" height="30" as="alternateBounds"/>
                    </mxGeometry>
                </mxCell>
                <mxCell id="raeqz4f3ff49IbHyFML1-26" value="new" style="shape=partialRectangle;html=1;whiteSpace=wrap;connectable=0;fillColor=none;top=0;left=0;bottom=0;right=0;align=left;spacingLeft=6;overflow=hidden;pointerEvents=1;" parent="raeqz4f3ff49IbHyFML1-24" vertex="1">
                    <mxGeometry x="40" width="140" height="30" as="geometry">
                        <mxRectangle width="140" height="30" as="alternateBounds"/>
                    </mxGeometry>
                </mxCell>
                <mxCell id="raeqz4f3ff49IbHyFML1-27" value="" style="shape=partialRectangle;html=1;whiteSpace=wrap;collapsible=0;dropTarget=0;pointerEvents=1;fillColor=none;top=0;left=0;bottom=0;right=0;points=[[0,0.5],[1,0.5]];portConstraint=eastwest;" parent="raeqz4f3ff49IbHyFML1-23" vertex="1">
                    <mxGeometry y="60" width="180" height="30" as="geometry"/>
                </mxCell>
                <mxCell id="raeqz4f3ff49IbHyFML1-28" value="2" style="shape=partialRectangle;html=1;whiteSpace=wrap;connectable=0;fillColor=none;top=0;left=0;bottom=0;right=0;overflow=hidden;pointerEvents=1;" parent="raeqz4f3ff49IbHyFML1-27" vertex="1">
                    <mxGeometry width="40" height="30" as="geometry">
                        <mxRectangle width="40" height="30" as="alternateBounds"/>
                    </mxGeometry>
                </mxCell>
                <mxCell id="raeqz4f3ff49IbHyFML1-29" value="running" style="shape=partialRectangle;html=1;whiteSpace=wrap;connectable=0;fillColor=none;top=0;left=0;bottom=0;right=0;align=left;spacingLeft=6;overflow=hidden;pointerEvents=1;" parent="raeqz4f3ff49IbHyFML1-27" vertex="1">
                    <mxGeometry x="40" width="140" height="30" as="geometry">
                        <mxRectangle width="140" height="30" as="alternateBounds"/>
                    </mxGeometry>
                </mxCell>
                <mxCell id="raeqz4f3ff49IbHyFML1-30" value="" style="shape=partialRectangle;html=1;whiteSpace=wrap;collapsible=0;dropTarget=0;pointerEvents=1;fillColor=none;top=0;left=0;bottom=0;right=0;points=[[0,0.5],[1,0.5]];portConstraint=eastwest;" parent="raeqz4f3ff49IbHyFML1-23" vertex="1">
                    <mxGeometry y="90" width="180" height="30" as="geometry"/>
                </mxCell>
                <mxCell id="raeqz4f3ff49IbHyFML1-31" value="3" style="shape=partialRectangle;html=1;whiteSpace=wrap;connectable=0;fillColor=none;top=0;left=0;bottom=0;right=0;overflow=hidden;pointerEvents=1;" parent="raeqz4f3ff49IbHyFML1-30" vertex="1">
                    <mxGeometry width="40" height="30" as="geometry">
                        <mxRectangle width="40" height="30" as="alternateBounds"/>
                    </mxGeometry>
                </mxCell>
                <mxCell id="raeqz4f3ff49IbHyFML1-32" value="done" style="shape=partialRectangle;html=1;whiteSpace=wrap;connectable=0;fillColor=none;top=0;left=0;bottom=0;right=0;align=left;spacingLeft=6;overflow=hidden;pointerEvents=1;" parent="raeqz4f3ff49IbHyFML1-30" vertex="1">
                    <mxGeometry x="40" width="140" height="30" as="geometry">
                        <mxRectangle width="140" height="30" as="alternateBounds"/>
                    </mxGeometry>
                </mxCell>
                <mxCell id="NnUHqiXCnqAOlCTsOFyo-1" value="clientStatus" style="shape=table;startSize=30;container=1;collapsible=0;childLayout=tableLayout;fixedRows=1;rowLines=0;fontStyle=1;align=center;pointerEvents=1;" parent="raeqz4f3ff49IbHyFML1-1" vertex="1">
                    <mxGeometry x="630" y="50" width="180" height="150" as="geometry"/>
                </mxCell>
                <mxCell id="NnUHqiXCnqAOlCTsOFyo-2" value="" style="shape=partialRectangle;html=1;whiteSpace=wrap;collapsible=0;dropTarget=0;pointerEvents=1;fillColor=none;top=0;left=0;bottom=1;right=0;points=[[0,0.5],[1,0.5]];portConstraint=eastwest;" parent="NnUHqiXCnqAOlCTsOFyo-1" vertex="1">
                    <mxGeometry y="30" width="180" height="30" as="geometry"/>
                </mxCell>
                <mxCell id="NnUHqiXCnqAOlCTsOFyo-3" value="1" style="shape=partialRectangle;html=1;whiteSpace=wrap;connectable=0;fillColor=none;top=0;left=0;bottom=0;right=0;overflow=hidden;pointerEvents=1;" parent="NnUHqiXCnqAOlCTsOFyo-2" vertex="1">
                    <mxGeometry width="40" height="30" as="geometry">
                        <mxRectangle width="40" height="30" as="alternateBounds"/>
                    </mxGeometry>
                </mxCell>
                <mxCell id="NnUHqiXCnqAOlCTsOFyo-4" value="running" style="shape=partialRectangle;html=1;whiteSpace=wrap;connectable=0;fillColor=none;top=0;left=0;bottom=0;right=0;align=left;spacingLeft=6;overflow=hidden;pointerEvents=1;" parent="NnUHqiXCnqAOlCTsOFyo-2" vertex="1">
                    <mxGeometry x="40" width="140" height="30" as="geometry">
                        <mxRectangle width="140" height="30" as="alternateBounds"/>
                    </mxGeometry>
                </mxCell>
                <mxCell id="NnUHqiXCnqAOlCTsOFyo-5" value="" style="shape=partialRectangle;html=1;whiteSpace=wrap;collapsible=0;dropTarget=0;pointerEvents=1;fillColor=none;top=0;left=0;bottom=0;right=0;points=[[0,0.5],[1,0.5]];portConstraint=eastwest;" parent="NnUHqiXCnqAOlCTsOFyo-1" vertex="1">
                    <mxGeometry y="60" width="180" height="30" as="geometry"/>
                </mxCell>
                <mxCell id="NnUHqiXCnqAOlCTsOFyo-6" value="2" style="shape=partialRectangle;html=1;whiteSpace=wrap;connectable=0;fillColor=none;top=0;left=0;bottom=0;right=0;overflow=hidden;pointerEvents=1;" parent="NnUHqiXCnqAOlCTsOFyo-5" vertex="1">
                    <mxGeometry width="40" height="30" as="geometry">
                        <mxRectangle width="40" height="30" as="alternateBounds"/>
                    </mxGeometry>
                </mxCell>
                <mxCell id="NnUHqiXCnqAOlCTsOFyo-7" value="free" style="shape=partialRectangle;html=1;whiteSpace=wrap;connectable=0;fillColor=none;top=0;left=0;bottom=0;right=0;align=left;spacingLeft=6;overflow=hidden;pointerEvents=1;" parent="NnUHqiXCnqAOlCTsOFyo-5" vertex="1">
                    <mxGeometry x="40" width="140" height="30" as="geometry">
                        <mxRectangle width="140" height="30" as="alternateBounds"/>
                    </mxGeometry>
                </mxCell>
                <mxCell id="NnUHqiXCnqAOlCTsOFyo-8" value="" style="shape=partialRectangle;html=1;whiteSpace=wrap;collapsible=0;dropTarget=0;pointerEvents=1;fillColor=none;top=0;left=0;bottom=0;right=0;points=[[0,0.5],[1,0.5]];portConstraint=eastwest;" parent="NnUHqiXCnqAOlCTsOFyo-1" vertex="1">
                    <mxGeometry y="90" width="180" height="30" as="geometry"/>
                </mxCell>
                <mxCell id="NnUHqiXCnqAOlCTsOFyo-9" value="3" style="shape=partialRectangle;html=1;whiteSpace=wrap;connectable=0;fillColor=none;top=0;left=0;bottom=0;right=0;overflow=hidden;pointerEvents=1;" parent="NnUHqiXCnqAOlCTsOFyo-8" vertex="1">
                    <mxGeometry width="40" height="30" as="geometry">
                        <mxRectangle width="40" height="30" as="alternateBounds"/>
                    </mxGeometry>
                </mxCell>
                <mxCell id="NnUHqiXCnqAOlCTsOFyo-10" value="done" style="shape=partialRectangle;html=1;whiteSpace=wrap;connectable=0;fillColor=none;top=0;left=0;bottom=0;right=0;align=left;spacingLeft=6;overflow=hidden;pointerEvents=1;" parent="NnUHqiXCnqAOlCTsOFyo-8" vertex="1">
                    <mxGeometry x="40" width="140" height="30" as="geometry">
                        <mxRectangle width="140" height="30" as="alternateBounds"/>
                    </mxGeometry>
                </mxCell>
            </root>
        </mxGraphModel>
    </diagram>
    <diagram id="foWRgooNuUdEqO3OoAvm" name="Page-3">
        <mxGraphModel dx="270" dy="418" grid="1" gridSize="10" guides="1" tooltips="1" connect="1" arrows="1" fold="1" page="1" pageScale="1" pageWidth="827" pageHeight="1169" math="0" shadow="0">
            <root>
                <mxCell id="GdupJNxRwFHgx1nl0X99-0"/>
                <mxCell id="GdupJNxRwFHgx1nl0X99-1" parent="GdupJNxRwFHgx1nl0X99-0"/>
            </root>
        </mxGraphModel>
    </diagram>
</mxfile>